<svg width="24" height="24" viewBox="0 0 24 24" fill="none" xmlns="http://www.w3.org/2000/svg">
<circle cx="12" cy="12" r="12" fill="#55B592"/>
<path d="M10.2839 7.02188L11.2265 8.47065C11.4143 8.75928 11.3529 9.14748 11.0856 9.36043L9.92494 10.2855C9.67318 10.4844 9.60089 10.8419 9.75481 11.1269C10.0954 11.7535 10.3004 12.0737 11.2265 12.9921C12.0385 13.7973 12.541 13.9531 13.0182 14.2243C13.2571 14.36 13.6454 14.3082 13.8393 14.0499L14.7418 12.861C14.9497 12.5871 15.3287 12.5241 15.6105 12.7166L17.069 13.713L18.7112 14.834C18.9987 15.0296 19.0854 15.4221 18.9082 15.7255L18.1305 17.0534C17.9242 17.4126 17.5909 17.6765 17.1998 17.7904C15.9074 18.1539 13.1846 18.4894 9.63003 14.7133C5.18855 10.2923 5.92013 8.1688 6.27484 6.84453C6.38593 6.44375 6.64339 6.10221 6.99378 5.89082L8.28909 5.09391C8.58521 4.91252 8.96815 5.00139 9.15909 5.29585L10.2839 7.02188Z" fill="white"/>
</svg>
