<svg width="24" height="24" viewBox="0 0 24 24" fill="none" xmlns="http://www.w3.org/2000/svg">
<circle cx="12" cy="12" r="12" fill="#5187F0"/>
<path d="M11.76 8.6C11.24 8.6 10.8067 8.44 10.46 8.12C10.1267 7.78667 9.96 7.34667 9.96 6.8C9.96 6.25333 10.1267 5.82 10.46 5.5C10.8067 5.16667 11.24 5 11.76 5C12.28 5 12.7067 5.16667 13.04 5.5C13.3867 5.82 13.56 6.25333 13.56 6.8C13.56 7.34667 13.3867 7.78667 13.04 8.12C12.7067 8.44 12.28 8.6 11.76 8.6ZM9.54 17.74C9.18 17.74 9 17.52 9 17.08C9 16.7733 9.10667 16.54 9.32 16.38C9.54667 16.22 9.85333 16.14 10.24 16.14H10.42V11.5H9.54C9.18 11.5 9 11.28 9 10.84C9 10.5333 9.10667 10.3 9.32 10.14C9.54667 9.98 9.85333 9.9 10.24 9.9H14.22V16.16L14.94 16.52C15.2467 16.6667 15.46 16.8 15.58 16.92C15.7 17.0267 15.76 17.1733 15.76 17.36C15.76 17.4933 15.7333 17.5933 15.68 17.66C15.6267 17.7133 15.5333 17.74 15.4 17.74H9.54Z" fill="white"/>
</svg>
