<svg width="24" height="24" viewBox="0 0 24 24" fill="none" xmlns="http://www.w3.org/2000/svg">
<circle cx="12" cy="12" r="12" fill="#C96969"/>
<path d="M5.1754 10.8548C4.92162 10.6077 4.94613 10.229 5.23012 10.0091L11.4869 5.16194C11.7709 4.94205 12.2262 4.94666 12.5042 5.17232L18.7823 10.2675C19.0603 10.4932 19.0739 10.8714 18.8125 11.1121L18.6551 11.2572C18.3939 11.4978 17.9719 11.5265 17.7129 11.3211L17.2437 10.9491V16.3953C17.2437 16.7295 16.9379 17 16.5608 17H14.1136C13.7364 17 13.4306 16.7295 13.4306 16.3953V12.5851H10.3092V16.3953C10.3146 16.7292 10.0448 16.9998 9.66765 16.9998H7.07423C6.6971 16.9998 6.39129 16.7292 6.39129 16.3951V11.0258C6.39129 11.0258 6.26168 11.1263 6.10182 11.2507C5.94223 11.3749 5.60703 11.2753 5.35324 11.0279L5.1754 10.8548Z" fill="white"/>
</svg>
