<svg width="487" height="161" viewBox="0 0 487 161" fill="none" xmlns="http://www.w3.org/2000/svg">
<path fill-rule="evenodd" clip-rule="evenodd" d="M46.2537 107.033C44.2084 107.349 42.8971 109.879 43.325 112.684C43.7529 115.489 45.7578 117.507 47.8031 117.19C49.8484 116.874 51.1596 114.344 50.7318 111.539C50.3039 108.734 48.299 106.716 46.2537 107.033ZM30.3733 132.322C29.5335 127.118 33.2157 121.395 40.128 119.573C47.2987 117.752 51.1748 121.265 50.2058 126.598C50.0177 127.648 49.7345 128.822 49.4342 130.066C48.5999 133.523 47.6331 137.529 48.2031 140.973C48.5229 142.94 49.3313 144.829 50.1338 146.705C50.7903 148.239 51.4429 149.764 51.8208 151.315C52.7252 155.022 52.3376 158.535 49.4305 159.705C46.2651 161.006 42.0014 160.031 40.3864 157.429C38.7004 154.802 38.0621 152.049 37.4019 149.202C36.9996 147.467 36.5893 145.697 35.929 143.9C35.1546 141.792 34.1002 140.068 33.1104 138.451C31.8707 136.425 30.7325 134.564 30.3733 132.322ZM37.1935 114.061C36.7407 112.36 37.4632 110.688 38.8072 110.325C40.1512 109.962 41.6078 111.046 42.0606 112.747C42.5134 114.447 41.7909 116.119 40.4469 116.482C39.1029 116.845 37.6463 115.761 37.1935 114.061ZM33.2274 113.36C31.9868 113.695 31.3181 115.232 31.734 116.794C32.1498 118.355 33.4926 119.349 34.7332 119.014C35.9738 118.679 36.6424 117.142 36.2266 115.581C35.8108 114.019 34.468 113.025 33.2274 113.36ZM28.4864 120.707C28.1352 119.388 28.6887 118.093 29.7225 117.814C30.7564 117.535 31.8791 118.378 32.2303 119.696C32.5814 121.015 32.028 122.31 30.9941 122.589C29.9603 122.868 28.8375 122.025 28.4864 120.707ZM27.2213 122.713C26.2908 122.965 25.7838 124.097 26.0887 125.242C26.3936 126.387 27.3951 127.111 28.3256 126.86C29.256 126.609 29.7631 125.477 29.4582 124.332C29.1532 123.187 28.1518 122.462 27.2213 122.713Z" fill="#AE308B"/>
<path d="M106.114 37.9073C113.495 39.8388 117.427 45.9091 116.53 51.4276C115.84 55.7044 112.46 58.6706 110.598 63.7062C108.735 68.7418 108.735 73.5705 105.838 78.0543C104.113 80.8136 99.5606 81.8483 96.1805 80.4686C93.0763 79.227 92.6625 75.502 93.6282 71.5701C94.5249 67.9141 96.8703 64.396 97.4911 60.6021C98.3189 55.6354 96.1115 49.5651 95.3527 45.3572C94.318 39.7008 98.4569 35.9758 106.114 37.9073Z" fill="#5F1A85"/>
<path d="M102.7 30.6011C103.157 27.6263 101.757 24.9429 99.5732 24.6075C97.3892 24.272 95.2483 26.4116 94.7915 29.3864C94.3346 32.3612 95.7347 35.0446 97.9187 35.38C100.103 35.7155 102.244 33.5759 102.7 30.6011Z" fill="#5F1A85"/>
<path d="M109.247 32.0611C109.73 30.258 108.959 28.4843 107.524 28.0995C106.089 27.7147 104.533 28.8645 104.05 30.6676C103.566 32.4707 104.338 34.2443 105.773 34.6292C107.208 35.014 108.763 33.8642 109.247 32.0611Z" fill="#5F1A85"/>
<path d="M115.077 34.959C115.521 33.303 114.807 31.6727 113.482 31.3175C112.158 30.9623 110.724 32.0167 110.28 33.6726C109.836 35.3285 110.55 36.9589 111.874 37.3141C113.199 37.6693 114.633 36.6149 115.077 34.959Z" fill="#5F1A85"/>
<path d="M118.545 39.1094C118.92 37.7111 118.329 36.3375 117.225 36.0415C116.121 35.7455 114.922 36.6391 114.547 38.0374C114.172 39.4358 114.763 40.8093 115.867 41.1053C116.971 41.4013 118.17 40.5077 118.545 39.1094Z" fill="#5F1A85"/>
<path d="M121.106 43.9186C121.431 42.7043 120.89 41.5039 119.896 41.2375C118.903 40.9711 117.833 41.7395 117.508 42.9538C117.182 44.1682 117.723 45.3686 118.717 45.635C119.71 45.9014 120.78 45.1329 121.106 43.9186Z" fill="#5F1A85"/>
<path d="M19.1999 61.68V55.344H59.416V61.68H19.1999ZM59.416 44.344V50.68H19.1999V44.344H59.416ZM65.9279 39.328H12.7759V80.952H19.1999V66.432H59.416V73.56C59.416 74.88 58.976 75.232 57.4799 75.32C56.16 75.32 50.7919 75.32 45.4239 75.232C46.3039 76.728 47.272 78.928 47.624 80.6C54.8399 80.6 59.592 80.6 62.32 79.632C65.048 78.752 65.9279 77.168 65.9279 73.56V39.328ZM42.0799 28.68V22.256H69.096V17.24H42.0799V11.432H72.792V6.23999H42.0799V0.343994H35.5679V6.23999H6.17595V11.432H35.5679V17.24H9.16795V22.256H35.5679V28.68H0.543945V33.872H77.4559V28.68H42.0799Z" fill="#413735"/>
<path d="M170.44 81.9881V84.9521H156.816V81.9881H170.44ZM156.764 90.5161C156.816 89.4761 156.816 88.4881 156.816 87.5521V87.5001H170.44V90.5161H156.764ZM171.272 99.6161V105.752H159.312V99.6161H171.272ZM173.924 93.4281V79.0761H153.384V87.5001C153.384 93.4281 152.812 101.488 147.924 107.416C148.652 107.832 150.056 109.08 150.524 109.808C153.436 106.22 155.048 101.748 155.932 97.3281V110.848H159.312V108.716H171.272V110.484H174.704V96.6521H156.036C156.244 95.5601 156.4 94.4681 156.504 93.4281H173.924ZM161.548 63.9961C159 68.2081 154.372 73.4601 147.924 77.3081C148.704 77.8281 149.9 79.1281 150.368 79.9081C153.228 78.0881 155.776 76.0601 157.908 74.0321V76.2161H170.544V73.4081H158.532C160.664 71.3281 162.432 69.1961 163.888 67.3241C167.476 70.1321 171.688 74.1881 173.924 76.6841L176.472 73.7721C173.872 71.0681 168.932 66.9081 165.084 63.9961H161.548ZM181.828 69.7161H178.188V98.3161H181.828V69.7161ZM189.784 64.5161V105.908C189.784 106.844 189.368 107.156 188.484 107.156C187.496 107.208 184.428 107.26 180.892 107.104C181.464 108.196 182.088 109.964 182.244 110.952C186.872 111.004 189.628 110.9 191.24 110.276C192.852 109.6 193.528 108.456 193.528 105.856V64.5161H189.784Z" fill="#3F3533"/>
<path d="M230.396 68.9361H220.932V63.6841H217.188V68.9361H207.62V72.1601H230.396V68.9361ZM224.416 80.4801C225.404 78.6081 226.444 75.6961 227.432 73.0961L223.896 72.2641C223.428 74.5001 222.232 77.7241 221.296 79.8041L224.416 80.4801ZM215.992 79.7521C215.732 77.7761 214.848 74.7081 213.756 72.3681L210.74 73.1481C211.728 75.4881 212.56 78.6081 212.768 80.6361L215.992 79.7521ZM229.148 100.604C227.952 99.5121 222.908 95.4041 220.932 93.9481V92.7001H230.604V89.4241H220.932V83.9641H231.02V80.6881H206.892V83.9641H217.188V89.4241H207.048V92.7001H216.356C213.756 97.2761 209.648 101.956 205.904 104.4C206.736 105.076 207.88 106.324 208.504 107.208C211.416 104.92 214.64 101.228 217.188 97.2241V110.848H220.932V97.6401C223.116 99.6161 225.768 102.164 226.86 103.464L229.148 100.604ZM253.952 80.8961H236.584V71.6401C242.356 70.4961 248.856 68.9361 253.276 66.9601L250.156 64.1001C246.828 65.7641 241.004 67.4281 235.7 68.5721L232.892 67.6881V85.7841C232.892 93.0641 232.164 102.06 225.56 108.508C226.444 109.028 227.848 110.38 228.316 111.212C235.596 103.984 236.584 93.5841 236.584 85.8361V84.5361H244.332V110.64H248.128V84.5361H253.952V80.8961Z" fill="#3F3533"/>
<path d="M311.36 69.6641H298.308V63.5801H294.512V69.6641H281.564V73.1481H311.36V69.6641ZM292.276 81.7801C292.016 79.4921 290.924 76.0081 289.676 73.4601L286.192 74.2921C287.388 76.9441 288.428 80.3761 288.636 82.6641L292.276 81.7801ZM275.272 79.6481H281.044V75.9561H275.272V63.8921H271.632V75.9561H265.392V79.6481H271.632V96.2881C268.928 97.3281 266.432 98.2121 264.404 98.8881L265.704 102.788C270.436 100.864 276.676 98.3681 282.448 95.9241L281.72 92.3881C279.588 93.2201 277.404 94.1041 275.272 94.8841V79.6481ZM305.068 94.6761V104.764H288.116V94.6761H305.068ZM284.528 110.9H288.116V108.248H305.068V110.744H308.864V91.1401H284.528V110.9ZM303.508 73.2521C302.832 75.8001 301.584 79.4921 300.544 81.7801L303.82 82.7161C304.964 80.5321 306.212 77.2561 307.46 74.3441L303.508 73.2521ZM312.296 82.7161H279.744V86.2521H312.296V82.7161Z" fill="#3F3533"/>
<path d="M346.096 74.8121C346.096 74.0321 346.096 73.3041 346.096 72.5761V63.5801H342.092V72.5761C342.092 73.3041 342.092 74.0321 342.092 74.8121H325.244V78.6601H341.884C341.104 88.3841 337.776 99.7721 323.684 108.144C324.62 108.768 326.024 110.276 326.648 111.212C341.728 102.008 345.16 89.4241 345.888 78.6601H363.62C362.632 96.9641 361.488 104.296 359.616 106.064C358.992 106.688 358.316 106.844 357.224 106.844C355.924 106.844 352.596 106.792 349.06 106.48C349.84 107.624 350.308 109.288 350.36 110.432C353.532 110.64 356.86 110.744 358.68 110.588C360.656 110.38 361.904 109.964 363.1 108.508C365.388 105.908 366.48 98.1601 367.624 76.8401C367.676 76.2681 367.728 74.8121 367.728 74.8121H346.096Z" fill="#3F3533"/>
<path d="M428.152 88.9561H406.832V70.8081H425.24V67.0121H384.576V70.8081H402.88V88.9561H381.872V92.7521H402.88V110.952H406.832V92.7521H428.152V88.9561ZM388.216 74.3961C390.192 78.1921 392.168 83.2361 392.896 86.3041L396.536 85.0561C395.86 81.9881 393.728 77.1001 391.596 73.3561L388.216 74.3961ZM415.776 86.4601C417.804 83.3401 420.3 78.4001 422.172 74.2401L418.116 73.0961C416.816 76.8401 414.424 82.1441 412.5 85.3681L415.776 86.4601Z" fill="#3F3533"/>
<path d="M475.576 92.5961V104.972H450.668V92.5961H475.576ZM446.768 110.952H450.668V108.664H475.576V110.848H479.684V88.9561H446.768V110.952ZM469.544 71.6401C471.78 73.5121 474.12 75.6961 476.304 77.9321C468.244 78.2961 460.08 78.6601 452.956 78.9201C455.868 74.7081 458.988 69.4041 461.38 64.7761L457.116 63.3201C455.088 68.1041 451.552 74.5001 448.484 79.1281C445.624 79.2321 442.972 79.3361 440.684 79.3881L440.944 83.2361C450.46 82.8201 465.436 82.3001 479.58 81.5201C481.088 83.3401 482.388 85.0561 483.272 86.5121L486.6 83.9641C483.948 79.7001 477.812 73.6161 472.56 69.4561L469.544 71.6401Z" fill="#3F3533"/>
<path d="M84.808 137.872V123.616H100.936V137.872H84.808ZM132.4 137.872H106.336V123.616H127.432V118.576H106.336V107.632H129.088V102.448H86.176C87.328 100 88.48 97.408 89.488 94.888L84.088 93.592C80.704 103.24 74.656 112.528 67.888 118.432C69.256 119.152 71.488 120.952 72.496 121.816C76.384 118.072 80.2 113.176 83.44 107.632H100.936V118.576H79.48V137.872H67.672V143.056H100.936V159.544H106.336V143.056H132.4V137.872Z" fill="#413735"/>
</svg>
