<svg width="209" height="66" viewBox="0 0 209 66" fill="none" xmlns="http://www.w3.org/2000/svg">
<path fill-rule="evenodd" clip-rule="evenodd" d="M21.7433 43.0141C20.8604 43.1506 20.2944 44.2429 20.4791 45.4538C20.6638 46.6647 21.5293 47.5356 22.4122 47.3991C23.2952 47.2625 23.8612 46.1702 23.6765 44.9594C23.4918 43.7485 22.6263 42.8776 21.7433 43.0141ZM14.8878 53.9313C14.5253 51.685 16.1148 49.2141 19.0988 48.4279C22.1943 47.6417 23.8676 49.1579 23.4493 51.4604C23.3681 51.9137 23.2458 52.4202 23.1162 52.9574C22.7561 54.4498 22.3387 56.1792 22.5848 57.6658C22.7228 58.5152 23.0718 59.3306 23.4182 60.1402C23.7016 60.8024 23.9833 61.4606 24.1465 62.1303C24.5369 63.7308 24.3696 65.247 23.1146 65.7524C21.7481 66.314 19.9076 65.8928 19.2104 64.7697C18.4825 63.6355 18.207 62.4472 17.922 61.2181C17.7483 60.4693 17.5712 59.7053 17.2861 58.9293C16.9519 58.0193 16.4967 57.2754 16.0694 56.5771C15.5342 55.7024 15.0429 54.8993 14.8878 53.9313ZM17.832 46.0481C17.6365 45.3142 17.9484 44.5922 18.5286 44.4356C19.1088 44.2789 19.7376 44.7469 19.933 45.4809C20.1285 46.2148 19.8166 46.9368 19.2364 47.0934C18.6562 47.2501 18.0274 46.7821 17.832 46.0481ZM16.1199 45.7456C15.5843 45.8902 15.2957 46.5538 15.4752 47.2279C15.6547 47.9019 16.2344 48.3311 16.77 48.1865C17.3055 48.0419 17.5942 47.3783 17.4146 46.7042C17.2351 46.0302 16.6555 45.601 16.1199 45.7456ZM14.0733 48.9172C13.9217 48.348 14.1606 47.7889 14.6069 47.6684C15.0532 47.5479 15.5379 47.9116 15.6895 48.4808C15.8411 49.05 15.6022 49.6091 15.1559 49.7296C14.7096 49.8501 14.2249 49.4864 14.0733 48.9172ZM13.5271 49.7834C13.1254 49.8918 12.9065 50.3805 13.0382 50.8747C13.1698 51.369 13.6021 51.6818 14.0038 51.5734C14.4055 51.4649 14.6244 50.9763 14.4927 50.482C14.3611 49.9877 13.9288 49.675 13.5271 49.7834Z" fill="white"/>
<path d="M43.8626 12.2232C46.6346 12.9486 48.1114 15.2284 47.7746 17.301C47.5155 18.9073 46.246 20.0213 45.5465 21.9126C44.847 23.8038 44.847 25.6173 43.7589 27.3013C43.1112 28.3376 41.4013 28.7262 40.1319 28.2081C38.966 27.7417 38.8106 26.3427 39.1733 24.866C39.5101 23.4929 40.391 22.1716 40.6241 20.7467C40.935 18.8814 40.106 16.6015 39.821 15.0212C39.4324 12.8968 40.9868 11.4978 43.8626 12.2232Z" fill="white"/>
<path d="M42.5806 9.47915C42.7522 8.36191 42.2264 7.35408 41.4061 7.22811C40.5859 7.10213 39.7818 7.90571 39.6102 9.02295C39.4387 10.1402 39.9645 11.148 40.7848 11.274C41.605 11.4 42.4091 10.5964 42.5806 9.47915Z" fill="white"/>
<path d="M45.0392 10.0274C45.2208 9.35023 44.9311 8.68409 44.3921 8.53957C43.8531 8.39504 43.2689 8.82685 43.0873 9.50405C42.9057 10.1812 43.1955 10.8474 43.7345 10.9919C44.2735 11.1364 44.8576 10.7046 45.0392 10.0274Z" fill="white"/>
<path d="M47.2289 11.1158C47.3957 10.4939 47.1275 9.8816 46.63 9.74819C46.1325 9.61478 45.594 10.0108 45.4272 10.6327C45.2604 11.2546 45.5286 11.8669 46.0261 12.0003C46.5236 12.1338 47.0622 11.7377 47.2289 11.1158Z" fill="white"/>
<path d="M48.5316 12.6746C48.6724 12.1494 48.4504 11.6336 48.0358 11.5224C47.6212 11.4112 47.1709 11.7468 47.0301 12.272C46.8893 12.7972 47.1113 13.313 47.5259 13.4242C47.9405 13.5354 48.3907 13.1998 48.5316 12.6746Z" fill="white"/>
<path d="M49.4929 14.4809C49.6152 14.0248 49.4118 13.574 49.0387 13.4739C48.6655 13.3739 48.2639 13.6625 48.1416 14.1185C48.0193 14.5746 48.2227 15.0254 48.5958 15.1255C48.969 15.2256 49.3706 14.937 49.4929 14.4809Z" fill="white"/>
<path d="M8.97989 25.7801V24.1241H23.1279V25.7801H8.97989ZM23.1279 19.7321V21.3161H8.97989V19.7321H23.1279ZM27.4839 16.6721H4.69589V34.1681H8.97989V28.5521H23.1279V29.9561C23.1279 30.4961 22.9479 30.6401 22.2999 30.6761C21.7599 30.7121 19.4199 30.7121 17.6559 30.6041C18.1959 31.5761 18.7719 32.9801 18.9879 34.0241C21.8679 34.0241 24.0279 33.9881 25.5039 33.4841C26.9799 32.9441 27.4839 32.0441 27.4839 30.0281V16.6721ZM18.0879 11.8841V10.1921H28.4919V7.16806H18.0879V5.54806H30.0759V2.34406H18.0879V0.508057H13.7319V2.34406H2.28389V5.54806H13.7319V7.16806H3.61589V10.1921H13.7319V11.8841H0.0878906V15.0881H31.9119V11.8841H18.0879Z" fill="white"/>
<path d="M69.9839 29.6342C70.5559 29.0402 71.0619 28.4462 71.5239 27.8742C72.1619 28.3802 72.8439 29.0182 73.4819 29.6342H69.9839ZM73.5039 33.9902V34.7822H68.9939V33.9902H73.5039ZM68.9279 37.1802C68.9499 36.8942 68.9719 36.6082 68.9719 36.3442H73.5039V37.1802H68.9279ZM73.9219 41.7562V43.3182H70.2039V41.7562H73.9219ZM74.0979 31.3942V30.2502C74.5599 30.7342 74.9559 31.1742 75.2639 31.5262L76.9359 29.5902C75.8799 28.4462 73.8779 26.8182 72.3379 25.6302H70.0059C68.9719 27.4342 67.1019 29.4802 64.4839 30.9982C64.9899 31.3942 65.7379 32.2742 66.0459 32.8462C66.2879 32.6922 66.5299 32.5162 66.7719 32.3622V35.3542C66.7719 37.8402 66.5299 41.3602 64.5939 43.8902C65.0559 44.1542 65.9799 45.0122 66.3099 45.4522C67.0579 44.5282 67.6079 43.4062 68.0039 42.2402V45.8702H70.2039V45.1882H73.9219V45.8042H76.1879V39.8862H68.5979C68.6639 39.6002 68.7079 39.2922 68.7519 39.0062H75.8579V32.1642H67.0579C67.7839 31.6362 68.4219 31.1082 69.0159 30.5582V31.3942H74.0979ZM79.6199 28.0282H77.1559V40.4142H79.6199V28.0282ZM81.9519 25.8062V42.7682C81.9519 43.1422 81.7979 43.2742 81.4019 43.2742C80.9839 43.2742 79.7079 43.2742 78.3879 43.2302C78.7619 43.9782 79.1359 45.1662 79.2459 45.8922C81.1379 45.8922 82.5019 45.8042 83.3379 45.3642C84.2179 44.9682 84.5039 44.2422 84.5039 42.7902V25.8062H81.9519Z" fill="white"/>
<path d="M96.3619 29.6782C96.1859 30.4262 95.8339 31.4382 95.5479 32.0982L96.9999 32.4062H92.6879L93.7879 32.0982C93.6999 31.4382 93.4139 30.4262 93.0399 29.6782H96.3619ZM96.0759 38.4562H99.7059V36.2562H96.0759V34.5622H99.9039V32.4062H97.6819C97.9899 31.7462 98.3419 30.8662 98.7379 29.9202L97.4619 29.6782H99.7279V27.5442H96.0759V25.5422H93.5459V27.5442H89.8499V29.6782H92.3139L90.9719 29.9862C91.2799 30.7342 91.5439 31.6802 91.6319 32.4062H89.6079V34.5622H93.5459V36.2562H89.6739V38.4562H93.0179C92.0059 40.1062 90.4879 41.7562 89.0579 42.7022C89.6079 43.1202 90.3559 43.9782 90.7519 44.5502C91.6979 43.7802 92.6879 42.6802 93.5459 41.4482V45.8702H96.0759V41.1842C96.7139 41.8002 97.3299 42.4602 97.6819 42.9002L99.1999 41.0302C98.6939 40.6342 96.8679 39.1822 96.0759 38.6322V38.4562ZM109.892 32.6042H103.028V29.5242C105.338 29.0402 107.846 28.3582 109.782 27.5002L107.692 25.5862C106.35 26.3122 104.172 27.0162 102.082 27.5222L100.564 27.1042V34.7162C100.564 37.7522 100.3 41.4922 97.7699 44.1762C98.3639 44.4842 99.3099 45.3862 99.6399 45.9582C102.544 42.9442 103.006 38.3022 103.028 35.0242H105.272V45.7822H107.802V35.0242H109.892V32.6042Z" fill="white"/>
<path d="M119.044 38.3682V33.0222H121.112V30.5582H119.044V25.5862H116.58V30.5582H114.314V33.0222H116.58V39.2702C115.546 39.6442 114.6 39.9742 113.83 40.2162L114.666 42.8562C116.778 42.0422 119.418 40.9642 121.882 39.9082L121.332 37.5102L119.044 38.3682ZM130.66 39.5122V42.4822H125.006V39.5122H130.66ZM122.52 45.8702H125.006V44.8582H130.66V45.7822H133.278V37.1802H122.52V45.8702ZM129.956 30.1622C129.78 31.0422 129.45 32.1642 129.164 32.9342L130.198 33.1982H125.402L126.458 32.9342C126.392 32.1862 126.084 31.0642 125.688 30.1622H129.956ZM131.562 33.1982C131.914 32.4722 132.288 31.4822 132.706 30.4922L131.276 30.1622H134.18V27.8302H129.054V25.4542H126.458V27.8302H121.376V30.1622H124.72L123.246 30.4922C123.554 31.3282 123.84 32.3842 123.95 33.1982H120.782V35.5522H134.576V33.1982H131.562Z" fill="white"/>
<path d="M149.14 29.9422V25.4102H146.346V29.9422H139.614V32.6262H146.236C145.862 36.4762 144.388 40.9202 138.932 43.8902C139.57 44.3742 140.56 45.3642 140.978 46.0242C147.16 42.5262 148.7 37.1802 149.052 32.6262H155.212C154.86 39.1602 154.42 42.0422 153.76 42.7242C153.452 43.0102 153.188 43.0762 152.726 43.0762C152.154 43.0762 150.856 43.0762 149.47 42.9662C149.976 43.7142 150.328 44.8802 150.372 45.6722C151.714 45.7382 153.078 45.7382 153.892 45.6282C154.838 45.4962 155.476 45.2542 156.136 44.3962C157.104 43.2522 157.544 39.9522 157.984 31.1962C158.028 30.8442 158.05 29.9422 158.05 29.9422H149.14Z" fill="white"/>
<path d="M183.57 35.9922H174.924V29.3262H182.294V26.7302H164.782V29.3262H172.196V35.9922H163.638V38.6322H172.196V45.9142H174.924V38.6322H183.57V35.9922ZM166.124 30.7342C166.828 32.2082 167.51 34.1222 167.73 35.3102L170.282 34.5182C170.04 33.2862 169.248 31.4382 168.522 30.0302L166.124 30.7342ZM178.972 35.2662C179.72 34.1442 180.6 32.3622 181.392 30.6682L178.598 29.9642C178.18 31.3942 177.388 33.3302 176.684 34.6062L178.972 35.2662Z" fill="white"/>
<path d="M202.71 38.6982V42.5042H193.558V38.6982H202.71ZM190.874 45.8922H193.558V45.0122H202.71V45.8702H205.526V36.2122H190.874V45.8922ZM200.444 29.1062C201.126 29.7002 201.852 30.3602 202.556 31.0642C200.026 31.1742 197.474 31.2842 195.098 31.3722C196.154 29.7662 197.254 27.9182 198.178 26.1802L195.164 25.2122C194.416 27.1482 193.162 29.5682 191.93 31.4822C190.698 31.5042 189.554 31.5482 188.542 31.5702L188.696 34.2102C192.788 34.0562 198.926 33.8142 204.734 33.5062C205.328 34.2322 205.812 34.9142 206.142 35.5082L208.408 33.7702C207.286 31.8782 204.668 29.3482 202.49 27.5662L200.444 29.1062Z" fill="white"/>
<path d="M38.9599 51.28V47.024H43.8039V51.28H38.9599ZM56.8239 51.28H47.2479V47.024H54.6399V43.916H47.2479V40.584H55.2839V37.364H39.4639C39.8279 36.6079 40.1359 35.852 40.3879 35.0679L36.9999 34.2C35.7959 37.812 33.6399 41.3959 31.1199 43.524C31.9319 44 33.3599 45.12 34.0039 45.68C35.3199 44.364 36.6639 42.572 37.8119 40.584H43.8039V43.916H35.6279V51.28H31.2039V54.472H43.8039V60.464H47.2479V54.472H56.8239V51.28Z" fill="white"/>
</svg>
